<svg xmlns="http://www.w3.org/2000/svg" version="1.1" xmlns:xlink="http://www.w3.org/1999/xlink" xmlns:svgjs="http://svgjs.dev/svgjs" width="2000" height="1850" viewBox="0 0 2000 1850"><g transform="matrix(1,0,0,1,-2.76147353122019,-2.98387096774195)"><svg viewBox="0 0 268 248" data-background-color="#ffffff" preserveAspectRatio="xMidYMid meet" height="1850" width="2000" xmlns="http://www.w3.org/2000/svg" xmlns:xlink="http://www.w3.org/1999/xlink"><g id="tight-bounds" transform="matrix(1,0,0,1,0.37003745318349957,0.4000000000000057)"><svg viewBox="0 0 267.259925093633 247.2" height="247.2" width="267.259925093633"><g><svg viewBox="0 0 267.259925093633 247.2" height="247.2" width="267.259925093633"><g><svg viewBox="0 0 267.259925093633 247.2" height="247.2" width="267.259925093633"><g id="textblocktransform"><svg viewBox="0 0 267.259925093633 247.2" height="247.2" width="267.259925093633" id="textblock"><g><svg viewBox="0 0 267.259925093633 247.2" height="247.2" width="267.259925093633"><g transform="matrix(1,0,0,1,0,0)"><svg width="267.259925093633" viewBox="0.75 -32 43.3 40.05" height="247.2" data-palette-color="#397cc3"><path d="M12.25-7.15L10.3 0.15 0.75-2.45 2.7-9.75 3.45-9.55 3.45-23.3 1.25-23.9 3.25-31.2 12.05-28.8 11-24.95 11-18.95 14.7-17.95 14.7-26.3 22.25-26.3 22.25-7.8 23.9-7.35 21.95-0.05 13.15-2.45 14.7-8.25 14.7-16.3 13.7-12.6 11-13.35 11-8.25 8.2-8.25 12.25-7.15ZM41.65 6.2L34.1 8.05 26.2 5.9 28.2-1.4 34.1 0.2 34.1-23.25 38.35-23.25 25.4-24.5 26.1-32 44.05-30.3 43.35-22.75 41.65-22.95 41.65 6.2Z" opacity="1" transform="matrix(1,0,0,1,0,0)" fill="#397cc3" class="wordmark-text-0" data-fill-palette-color="primary" id="text-0"></path></svg></g></svg></g></svg></g></svg></g></svg></g><defs></defs></svg><rect width="267.259925093633" height="247.2" fill="none" stroke="none" visibility="hidden"></rect></g></svg></g></svg>